<?xml version="1.0" standalone="no"?>
<!DOCTYPE svg PUBLIC "-//W3C//DTD SVG 20010904//EN"
 "http://www.w3.org/TR/2001/REC-SVG-20010904/DTD/svg10.dtd">
<svg version="1.0" xmlns="http://www.w3.org/2000/svg"
 width="736.000000pt" height="736.000000pt" viewBox="0 0 736.000000 736.000000"
 preserveAspectRatio="xMidYMid meet">
<metadata>
Created by potrace 1.14, written by Peter Selinger 2001-2017
</metadata>
<g transform="translate(0.000000,736.000000) scale(0.100000,-0.100000)"
fill="#000000" stroke="none">
<path d="M5021 6643 c-6 -21 -11 -51 -12 -68 -1 -28 -2 -28 -8 7 -11 52 -27
68 -70 68 -94 0 -158 -46 -145 -104 11 -52 43 -96 70 -96 22 0 24 -4 24 -54 0
-79 10 -118 32 -124 18 -4 18 -5 1 -18 -10 -7 -21 -14 -24 -14 -4 0 -10 31
-14 70 -8 75 -24 102 -50 80 -13 -10 -15 -34 -12 -129 4 -142 8 -145 120 -71
71 46 77 52 66 71 -7 14 -18 20 -33 17 -20 -4 -22 -2 -17 31 5 29 12 36 39 43
21 6 32 15 32 27 0 25 -25 45 -50 38 -29 -8 -26 30 5 59 l25 23 -6 -25 c-7
-28 10 -54 36 -54 15 0 18 -10 19 -65 1 -76 10 -102 45 -134 37 -34 104 -37
186 -9 51 18 66 28 68 46 5 32 -22 38 -77 19 -86 -31 -145 -23 -155 20 -9 35
-3 39 67 42 11 1 20 12 24 31 6 31 6 31 24 11 23 -24 47 -18 55 15 3 13 4 64
3 113 -5 121 -18 136 -109 128 -36 -3 -73 -9 -82 -12 -14 -6 -17 -1 -15 22 2
24 -2 28 -25 31 -23 3 -28 -2 -37 -35z m-94 -107 c-3 -8 -19 -16 -36 -18 -27
-4 -32 -1 -37 19 -8 29 -2 36 34 41 15 2 29 6 32 9 7 7 13 -36 7 -51z m299
-35 c4 -45 3 -61 -5 -57 -6 4 -11 17 -11 30 0 13 -9 31 -20 41 -25 23 -83 13
-104 -17 -20 -28 -25 -22 -19 19 4 28 11 34 42 43 46 13 94 17 103 10 4 -3 10
-34 14 -69z m-76 -66 c0 -14 -7 -28 -15 -32 -22 -8 -27 0 -19 31 8 34 34 34
34 1z"/>
<path d="M5566 6654 c-3 -9 -6 -60 -6 -114 0 -76 4 -102 16 -114 8 -9 17 -16
19 -16 2 0 11 7 19 16 12 12 16 38 16 114 0 115 -4 130 -35 130 -13 0 -26 -7
-29 -16z"/>
<path d="M4194 6573 c-12 -2 -35 -16 -53 -31 l-31 -27 15 -65 c16 -68 34 -90
72 -90 16 0 23 -6 23 -20 0 -14 -9 -21 -35 -26 -51 -9 -62 -64 -13 -64 16 0
19 -4 14 -22 -17 -58 -19 -90 -5 -98 22 -15 42 6 65 66 17 45 27 60 47 65 14
4 28 4 31 1 12 -11 6 -56 -9 -72 -20 -22 -9 -50 20 -50 46 0 72 50 62 118 -7
44 -38 72 -78 72 -40 0 -40 34 0 48 39 14 51 39 52 108 2 76 -18 95 -100 93
-31 -1 -65 -4 -77 -6z m114 -91 c3 -27 -1 -34 -23 -42 -31 -12 -82 -13 -88 -2
-2 4 -7 19 -11 34 -5 22 -2 28 22 37 15 5 43 9 62 8 32 -2 35 -5 38 -35z"/>
<path d="M4527 6572 c-3 -4 -6 -106 -8 -227 -3 -198 -2 -220 13 -223 10 -2 25
9 35 25 16 24 18 48 15 217 -2 116 -7 195 -14 203 -12 14 -34 17 -41 5z"/>
<path d="M4422 6448 c-7 -7 -12 -38 -12 -69 0 -67 19 -96 51 -79 16 9 19 22
19 73 0 60 -11 87 -35 87 -6 0 -16 -5 -23 -12z"/>
<path d="M5572 6348 c-23 -23 -7 -68 25 -68 19 0 33 41 21 63 -10 20 -29 22
-46 5z"/>
<path d="M3070 5784 c-278 -35 -493 -101 -706 -213 -96 -51 -103 -53 -209 -62
-436 -35 -745 -146 -745 -268 0 -76 82 -261 186 -418 l65 -98 -25 -115 c-50
-227 -55 -406 -20 -630 15 -95 60 -242 96 -313 10 -21 16 -42 13 -47 -3 -6
-27 -10 -53 -10 -26 0 -87 -5 -137 -11 -49 -5 -107 -11 -127 -12 -21 -1 -38
-5 -38 -10 0 -5 21 -6 48 -3 26 3 85 8 132 11 47 3 110 8 141 11 l55 6 43 -61
c23 -34 67 -82 97 -108 31 -27 49 -50 43 -53 -5 -4 -38 -8 -73 -9 -35 -1 -76
-6 -92 -11 -20 -7 8 -9 92 -5 l120 5 79 -40 c43 -22 102 -45 132 -51 29 -7 53
-15 53 -19 0 -4 -32 -34 -71 -66 -143 -119 -264 -301 -276 -417 -14 -135 83
-230 219 -214 39 5 49 3 45 -7 -6 -14 -14 -70 -22 -145 -2 -24 -5 -45 -7 -46
-2 -1 -83 -6 -181 -11 -106 -5 -177 -13 -177 -19 0 -10 135 -10 281 1 l76 6
10 -74 c6 -40 9 -75 6 -77 -2 -3 -97 -10 -211 -17 -204 -13 -262 -22 -262 -45
0 -7 7 -8 18 -4 19 7 286 24 398 25 l71 0 18 -47 c44 -118 147 -229 268 -288
175 -86 403 -110 749 -79 l77 7 -26 -79 c-14 -43 -28 -114 -31 -156 -6 -101
18 -155 86 -195 39 -23 58 -28 122 -28 66 0 84 4 140 33 134 68 343 307 443
507 95 191 226 584 273 823 l18 93 61 33 c33 18 168 88 300 156 539 275 684
392 646 521 l-12 40 60 72 c33 40 67 80 74 91 13 17 24 11 179 -98 104 -73
174 -116 190 -116 19 0 44 22 105 93 172 200 343 435 343 473 0 27 -51 71
-225 190 -196 135 -273 184 -289 184 -15 0 -69 -61 -151 -170 -205 -274 -450
-597 -461 -609 -7 -8 -33 -16 -59 -18 l-46 -5 47 72 c163 252 176 576 34 812
-26 43 -40 79 -40 101 0 49 -36 243 -61 323 -11 38 -35 100 -51 139 l-31 69
26 101 c48 187 60 397 27 467 -21 45 -72 58 -221 58 -131 0 -272 -21 -373 -55
-42 -14 -46 -14 -147 24 -123 46 -293 86 -456 106 -148 19 -546 18 -693 -1z
m569 -84 c582 -45 964 -252 1166 -633 24 -45 55 -112 69 -149 35 -93 74 -276
82 -383 7 -95 16 -125 38 -125 18 0 50 -67 73 -150 13 -47 18 -100 17 -190 0
-107 -4 -136 -27 -205 -33 -101 -87 -190 -157 -261 -57 -58 -165 -135 -216
-154 -16 -6 -42 -18 -59 -25 -54 -26 -158 -55 -265 -76 -135 -26 -150 -32
-150 -63 0 -42 26 -59 79 -51 166 23 304 63 455 132 96 44 258 104 264 98 2
-2 -8 -21 -23 -43 -14 -21 -23 -45 -20 -53 4 -8 31 -34 62 -58 l55 -44 -63
-40 c-82 -52 -678 -367 -694 -367 -3 0 -5 8 -5 17 0 22 -29 53 -50 53 -31 0
-42 -27 -67 -162 -83 -451 -248 -894 -413 -1108 -186 -240 -310 -320 -429
-279 -69 24 -69 131 0 308 21 54 28 63 59 71 19 6 41 10 48 10 24 0 183 60
241 90 85 46 127 84 157 146 33 67 29 128 -12 182 -63 81 -159 89 -533 42
-239 -29 -251 -33 -251 -75 0 -53 21 -54 290 -20 205 26 341 32 385 15 28 -11
49 -53 41 -85 -17 -66 -151 -145 -321 -189 -187 -48 -294 -60 -520 -61 -185 0
-220 3 -297 22 -136 35 -210 73 -282 145 -49 50 -106 136 -106 161 0 2 43 7
96 11 53 4 104 10 112 15 22 13 -44 22 -139 20 -44 -1 -81 0 -84 2 -2 3 -7 34
-11 70 -6 64 -6 66 17 72 13 4 38 7 54 7 17 0 37 5 45 10 10 7 -6 10 -54 10
l-69 0 7 63 c4 34 16 97 27 139 20 75 23 79 113 166 70 68 116 102 189 141 99
54 117 74 97 111 -15 28 -52 25 -123 -11 -90 -45 -141 -83 -247 -182 -52 -49
-112 -101 -132 -114 -45 -31 -100 -33 -137 -5 -34 25 -41 97 -15 156 54 124
203 285 332 361 76 45 77 45 171 45 199 0 311 27 311 74 0 34 -31 48 -89 42
-143 -15 -330 -18 -416 -6 -100 14 -100 16 0 26 100 9 57 22 -78 23 -119 1
-146 10 -242 81 -54 40 -125 114 -125 130 0 6 26 10 58 10 83 0 162 11 162 23
0 6 -44 7 -125 3 l-126 -8 -44 94 c-94 198 -125 452 -89 726 21 165 25 176 57
180 16 2 34 14 44 28 15 24 15 27 -3 49 -80 101 -138 182 -181 255 -54 94
-113 227 -113 259 0 81 366 185 680 194 90 3 99 5 155 39 328 197 793 286
1294 248z m1195 -86 l46 -7 0 -97 c0 -92 -24 -277 -38 -292 -4 -4 -22 16 -41
43 -23 34 -31 53 -24 61 6 7 17 34 25 59 18 51 10 125 -13 141 -17 11 -199 0
-214 -12 -7 -6 -33 6 -69 29 -46 31 -54 40 -40 44 22 6 117 25 154 31 45 6
166 6 214 0z m1259 -1574 c8 -11 16 -18 19 -15 3 3 11 -1 18 -10 8 -10 9 -15
1 -15 -6 0 -11 3 -11 8 0 4 -12 8 -27 9 -14 0 -21 -2 -15 -6 6 -4 17 -22 25
-40 9 -21 17 -29 22 -22 4 7 0 20 -9 30 -15 17 -14 18 14 18 16 0 30 -4 30 -9
0 -4 -5 -8 -12 -8 -6 0 -8 -3 -5 -6 11 -11 -14 -46 -29 -40 -8 3 -14 0 -14 -6
0 -7 -5 -6 -15 2 -8 7 -15 20 -15 28 0 13 3 12 15 -4 14 -18 14 -17 4 9 -7 15
-14 25 -17 22 -3 -3 -11 0 -19 6 -9 8 -13 8 -13 1 0 -6 4 -13 10 -17 5 -3 7
-11 5 -18 -8 -22 22 -49 46 -42 20 7 19 4 -10 -36 -17 -24 -43 -57 -56 -74
-22 -26 -25 -27 -25 -10 0 16 -3 15 -15 -9 -19 -37 -19 -42 2 -25 9 8 4 -3
-12 -23 -17 -21 -33 -38 -37 -38 -5 0 -8 -8 -8 -17 0 -15 -2 -16 -10 -3 -5 8
-10 10 -10 4 0 -6 -14 -10 -30 -9 -17 1 -28 0 -25 -3 2 -3 -4 -17 -15 -32 -21
-30 -26 -45 -11 -36 5 4 11 2 13 -3 1 -5 10 -2 18 7 13 14 12 15 -3 9 -25 -9
-21 6 8 33 21 20 27 21 38 10 9 -10 9 -11 0 -6 -8 4 -13 1 -13 -7 0 -37 -54
-76 -76 -55 -8 9 -34 -2 -34 -14 0 -7 4 -7 13 0 8 7 16 6 24 -3 10 -10 9 -16
-1 -25 -8 -6 -16 -7 -18 -3 -3 4 -3 2 -1 -6 2 -7 -2 -20 -8 -27 -9 -11 -19 -8
-55 18 -43 31 -55 48 -33 48 5 0 7 5 4 10 -4 6 5 25 19 43 15 17 35 43 47 57
11 14 45 57 76 97 47 60 59 70 74 63 10 -6 24 -10 31 -9 9 0 9 2 -2 6 -19 8
-44 33 -33 33 5 0 16 12 25 28 9 15 27 39 41 54 13 14 34 42 46 62 26 41 34
44 54 16z"/>
<path d="M1890 5285 c-138 -26 -245 -76 -256 -120 -11 -46 48 -187 119 -280
50 -66 90 -105 107 -105 9 0 28 23 43 53 33 61 39 72 95 157 23 37 42 69 42
74 0 4 -18 -3 -40 -15 -92 -52 -39 19 77 103 24 17 42 33 40 34 -2 2 -38 -8
-81 -22 -77 -24 -110 -24 -72 -1 10 7 61 35 113 63 55 30 90 55 84 59 -24 14
-197 14 -271 0z"/>
<path d="M4216 4743 c-9 -10 -36 -47 -60 -82 -35 -51 -43 -69 -35 -83 18 -33
29 -25 93 65 46 66 56 105 29 114 -7 3 -19 -4 -27 -14z"/>
<path d="M3207 4743 c-15 -14 -5 -39 44 -105 33 -44 57 -68 68 -66 31 6 21 43
-30 111 -47 63 -66 77 -82 60z"/>
<path d="M4270 4578 c-137 -71 -91 -273 65 -286 40 -3 57 1 84 20 57 39 76 73
75 134 0 63 -21 98 -80 131 -50 29 -88 29 -144 1z"/>
<path d="M3080 4568 c-55 -38 -74 -71 -74 -132 -1 -59 16 -92 68 -130 63 -47
178 -17 222 58 23 40 23 113 -1 153 -41 69 -150 95 -215 51z"/>
<path d="M3672 4421 c-33 -23 -50 -28 -75 -24 -23 3 -37 0 -46 -11 -19 -22 2
-46 41 -46 l30 0 -7 -122 c-4 -68 -11 -157 -15 -198 -7 -56 -5 -78 4 -88 7 -7
54 -18 106 -24 90 -11 93 -11 110 10 22 27 36 193 27 319 l-6 83 32 0 c41 0
60 13 55 36 -2 15 -15 20 -59 25 -40 4 -67 15 -98 37 -24 18 -47 32 -50 32 -3
0 -25 -13 -49 -29z"/>
<path d="M6017 3963 c-4 -3 -7 -11 -7 -17 0 -6 5 -5 12 2 6 6 9 14 7 17 -3 3
-9 2 -12 -2z"/>
<path d="M5981 3923 c-7 -8 -11 -16 -8 -19 2 -2 10 2 17 11 17 20 9 27 -9 8z"/>
<path d="M6016 3921 c-3 -4 1 -17 9 -27 13 -18 14 -18 9 6 l-6 25 21 -25 c15
-19 22 -22 31 -13 5 7 7 11 4 9 -3 -3 -15 4 -27 15 -23 21 -33 24 -41 10z"/>
<path d="M5945 3880 c-3 -5 -1 -10 4 -10 6 0 11 5 11 10 0 6 -2 10 -4 10 -3 0
-8 -4 -11 -10z"/>
<path d="M6013 3849 c1 -14 7 -26 14 -26 8 0 9 5 4 11 -4 6 -11 18 -14 26 -3
8 -5 3 -4 -11z"/>
<path d="M6040 3855 c0 -8 2 -15 4 -15 2 0 6 7 10 15 3 8 1 15 -4 15 -6 0 -10
-7 -10 -15z"/>
<path d="M5935 3770 c-3 -5 -1 -10 4 -10 6 0 11 -4 11 -10 0 -5 -8 -7 -17 -4
-14 5 -15 4 -4 -4 7 -5 11 -14 8 -19 -3 -5 0 -10 8 -10 9 0 14 7 13 16 -2 10
3 15 12 13 11 -3 10 2 -4 17 -22 24 -23 24 -31 11z"/>
<path d="M5810 3680 c8 -5 20 -10 25 -10 6 0 3 5 -5 10 -8 5 -19 10 -25 10 -5
0 -3 -5 5 -10z"/>
<path d="M5805 3640 c3 -5 8 -10 11 -10 2 0 4 5 4 10 0 6 -5 10 -11 10 -5 0
-7 -4 -4 -10z"/>
<path d="M5747 3616 c-4 -10 -3 -15 3 -11 6 4 9 -3 6 -17 -2 -15 -10 -22 -21
-21 -12 1 -14 -2 -6 -10 7 -7 15 -6 26 3 12 10 15 10 15 -3 0 -8 -6 -18 -12
-20 -8 -4 -9 -6 -2 -6 6 -1 17 5 23 13 9 10 8 16 -4 26 -14 11 -13 14 2 26 16
12 16 13 1 14 -9 0 -18 5 -20 12 -3 7 -7 5 -11 -6z"/>
</g>
</svg>
