<?xml version="1.0" standalone="no"?>
<!DOCTYPE svg PUBLIC "-//W3C//DTD SVG 20010904//EN"
 "http://www.w3.org/TR/2001/REC-SVG-20010904/DTD/svg10.dtd">
<svg version="1.0" xmlns="http://www.w3.org/2000/svg"
 width="400.000000pt" height="400.000000pt" viewBox="0 0 400.000000 400.000000"
 preserveAspectRatio="xMidYMid meet">
<metadata>
Created by potrace 1.14, written by Peter Selinger 2001-2017
</metadata>
<g transform="translate(0.000000,400.000000) scale(0.100000,-0.100000)"
fill="#000000" stroke="none">
<path d="M2320 3949 c0 -5 5 -7 10 -4 6 3 10 8 10 11 0 2 -4 4 -10 4 -5 0 -10
-5 -10 -11z"/>
<path d="M2278 3905 c-2 -19 0 -35 4 -35 4 0 8 16 8 35 0 19 -2 35 -4 35 -2 0
-6 -16 -8 -35z"/>
<path d="M2526 3886 c-3 -13 -9 -32 -13 -41 -4 -13 -2 -16 8 -13 15 5 31 66
19 73 -4 3 -11 -6 -14 -19z"/>
<path d="M2136 3842 c-5 -18 -5 -36 -2 -39 7 -7 19 43 13 59 -2 7 -7 -2 -11
-20z"/>
<path d="M2347 3826 c-5 -15 -6 -31 -3 -34 8 -8 18 25 14 45 -3 13 -6 10 -11
-11z"/>
<path d="M2367 3794 c-4 -21 -3 -43 2 -48 4 -6 5 -38 2 -71 -6 -58 -7 -59 -15
-25 l-9 35 -8 -54 c-6 -36 -6 -58 1 -65 7 -7 10 -3 10 12 0 16 4 20 16 15 13
-5 15 -17 12 -59 -4 -45 -3 -51 8 -36 8 9 14 25 14 35 0 20 16 23 23 5 5 -18
-3 -48 -14 -48 -5 0 -9 -8 -9 -17 0 -10 -14 -38 -30 -63 -16 -25 -30 -49 -30
-55 1 -5 6 -1 13 10 17 29 35 28 35 -1 0 -14 3 -28 6 -32 11 -10 26 20 25 48
-2 39 1 46 11 30 5 -8 10 -32 10 -53 0 -30 -4 -39 -24 -47 -39 -14 -41 -30 -4
-30 29 0 33 -3 33 -22 -1 -13 -7 -33 -13 -45 -7 -13 -8 -24 -3 -27 5 -4 11 -1
13 6 8 24 25 -3 26 -43 1 -23 6 -47 12 -54 5 -6 7 -15 3 -18 -3 -4 1 -7 10 -7
9 0 19 5 22 10 8 13 25 3 25 -16 0 -8 -7 -14 -15 -14 -8 0 -15 -4 -15 -10 0
-5 9 -10 20 -10 11 0 20 7 20 16 0 8 5 12 10 9 6 -3 10 1 10 9 0 9 8 16 19 16
11 0 22 6 24 13 4 9 7 9 14 0 10 -14 39 0 29 15 -4 6 6 7 29 2 19 -4 37 -5 41
-1 7 7 -3 -48 -17 -96 -12 -37 -34 -43 -42 -12 -4 15 -11 20 -21 16 -12 -5
-16 0 -16 23 0 43 -11 43 -53 -1 -32 -32 -35 -39 -19 -39 12 0 22 9 26 23 l6
22 25 -27 c14 -15 25 -31 25 -35 0 -4 14 -19 31 -33 17 -13 36 -37 41 -52 12
-35 26 -36 34 -3 4 16 -1 34 -15 54 -25 34 -27 56 -6 47 11 -4 15 2 15 23 0
61 12 91 45 111 18 11 43 20 56 20 39 0 199 54 199 67 0 7 13 19 30 28 16 8
34 24 40 35 6 12 21 20 35 20 13 0 28 7 33 16 10 19 32 11 32 -12 0 -9 -10
-14 -27 -14 -16 0 -34 -4 -42 -9 -18 -12 -6 -45 14 -37 9 3 15 0 15 -10 0 -10
8 -13 25 -10 14 3 25 0 25 -5 0 -5 7 -9 15 -9 8 0 15 -7 15 -15 0 -8 7 -15 15
-15 8 0 14 -5 12 -12 -1 -7 12 -14 28 -18 17 -3 30 -9 30 -14 0 -4 -13 -14
-30 -21 -30 -12 -30 -12 28 -20 52 -7 90 -25 53 -25 -26 0 -18 -15 13 -27 25
-9 45 -5 133 23 152 50 340 94 398 94 l30 0 0 100 c0 97 -1 100 -22 100 -13 0
-44 7 -71 15 -26 8 -48 14 -50 14 -1 0 -9 2 -17 5 -51 19 -194 56 -216 56 -13
0 -38 9 -54 20 -17 11 -44 30 -61 41 -18 12 -29 17 -25 10 4 -6 3 -11 -2 -11
-5 0 -14 10 -19 23 -6 13 -36 36 -70 53 -54 27 -113 76 -113 94 0 17 -74 68
-106 75 -19 3 -34 10 -34 15 0 5 -17 14 -37 21 -21 7 -32 14 -25 16 29 10 8
23 -35 22 -47 -2 -47 -2 -13 -9 30 -6 31 -8 9 -9 -15 0 -38 -10 -53 -22 -14
-11 -26 -18 -26 -14 0 4 -7 -1 -16 -9 -22 -22 -55 -20 -61 4 -11 41 -59 19
-147 -66 -6 -6 -21 -16 -34 -23 -12 -6 -22 -19 -23 -29 0 -10 -3 -12 -6 -4 -2
6 -13 12 -23 12 -11 0 -20 9 -23 23 -4 20 -4 20 -6 -3 0 -14 -14 -40 -31 -58
-16 -18 -30 -37 -30 -42 0 -4 -10 -27 -22 -51 l-23 -42 -3 37 c-3 33 -14 47
-25 29 -2 -5 -2 -1 1 7 16 49 39 185 34 203 -6 22 -6 22 -12 -2 -7 -30 -27
-38 -33 -14 -3 10 -5 3 -6 -15 -1 -45 -19 -31 -28 21 -5 34 -8 38 -15 22 -7
-16 -8 -15 -5 7 6 42 -9 54 -16 12z m773 -70 c0 -2 -7 -4 -15 -4 -8 0 -15 4
-15 10 0 5 7 7 15 4 8 -4 15 -8 15 -10z m-690 -36 c0 -36 -15 -67 -26 -55 -4
4 -2 13 4 19 7 7 12 25 12 40 0 15 2 28 5 28 3 0 5 -15 5 -32z m250 -121 c0
-8 -3 -17 -7 -20 -9 -9 -34 13 -27 24 8 14 34 11 34 -4z m65 -138 c0 -17 -6
-24 -20 -24 -23 0 -33 34 -13 46 20 13 33 5 33 -22z m-191 6 c3 -8 1 -15 -4
-15 -6 0 -10 7 -10 15 0 8 2 15 4 15 2 0 6 -7 10 -15z m582 -46 c3 -6 0 -18
-8 -26 -14 -13 -16 -12 -20 11 -5 27 14 37 28 15z m-509 -55 c7 -19 -21 -44
-49 -44 -27 0 -35 30 -13 46 25 19 54 18 62 -2z m583 -5 c0 -5 -4 -9 -10 -9
-5 0 -10 7 -10 16 0 8 5 12 10 9 6 -3 10 -10 10 -16z m-80 7 c0 -3 -4 -8 -10
-11 -5 -3 -10 -1 -10 4 0 6 5 11 10 11 6 0 10 -2 10 -4z m96 -46 c0 -11 -4
-20 -8 -20 -4 0 -8 9 -8 20 0 11 4 20 8 20 4 0 8 -9 8 -20z m-26 -35 c0 -8 -7
-15 -15 -15 -26 0 -18 20 13 29 1 1 2 -6 2 -14z m-700 -136 c0 -11 -4 -17 -10
-14 -5 3 -10 13 -10 21 0 8 5 14 10 14 6 0 10 -9 10 -21z"/>
<path d="M2510 3795 c-7 -18 -7 -32 -1 -38 5 -5 12 3 16 23 9 41 -1 51 -15 15z"/>
<path d="M2907 3813 c-4 -3 -7 -11 -7 -17 0 -6 5 -5 12 2 6 6 9 14 7 17 -3 3
-9 2 -12 -2z"/>
<path d="M2871 3774 c0 -11 3 -14 6 -6 3 7 2 16 -1 19 -3 4 -6 -2 -5 -13z"/>
<path d="M2351 3714 c0 -11 3 -14 6 -6 3 7 2 16 -1 19 -3 4 -6 -2 -5 -13z"/>
<path d="M1721 3694 c0 -11 3 -14 6 -6 3 7 2 16 -1 19 -3 4 -6 -2 -5 -13z"/>
<path d="M1782 3640 c0 -14 2 -19 5 -12 2 6 2 18 0 25 -3 6 -5 1 -5 -13z"/>
<path d="M2488 3630 c-12 -38 -10 -66 3 -53 6 6 9 26 7 44 -3 32 -3 33 -10 9z"/>
<path d="M1552 3444 c-35 -12 -54 -13 -95 -4 -34 7 -54 7 -61 0 -5 -5 -37 -10
-70 -10 -34 0 -79 -6 -101 -12 -22 -6 -65 -12 -95 -12 -30 -1 -65 -7 -77 -13
-12 -7 -29 -13 -37 -13 -9 0 -25 -9 -36 -20 -11 -11 -20 -16 -20 -11 0 20 -32
19 -56 -1 -14 -12 -39 -24 -57 -26 -17 -2 -35 -9 -39 -15 -6 -9 -8 -9 -8 1 0
6 -5 12 -11 12 -29 0 45 -99 75 -101 68 -3 93 -11 113 -34 12 -14 26 -25 32
-25 19 0 72 -53 86 -86 9 -21 21 -34 32 -34 27 0 43 -19 43 -50 0 -36 40 -72
76 -68 22 2 29 -2 32 -17 2 -11 14 -30 28 -43 22 -21 27 -21 94 -12 40 6 80
15 90 20 10 5 32 7 49 4 29 -6 68 15 54 30 -4 3 -2 6 4 6 6 0 16 -7 24 -16 7
-8 21 -13 31 -11 24 7 78 -20 78 -38 0 -7 3 -20 6 -29 4 -11 0 -16 -12 -16
-11 0 -32 -14 -49 -31 -21 -22 -35 -29 -52 -24 -17 4 -21 2 -17 -10 8 -21 24
-19 66 10 20 14 41 25 46 25 5 0 16 8 26 19 15 16 40 19 83 10 14 -3 63 20 63
30 0 5 -8 11 -18 13 -15 4 -18 17 -17 97 0 51 -3 95 -7 97 -4 3 -8 22 -8 42
-1 48 -36 181 -54 201 -7 9 -17 27 -21 41 -9 35 -48 113 -60 123 -5 4 -27 5
-47 2 -23 -3 -38 -1 -38 5 0 13 -17 12 -68 -6z m-96 -111 c-10 -10 -19 5 -10
18 6 11 8 11 12 0 2 -7 1 -15 -2 -18z m-502 -2 c3 -5 -1 -11 -9 -15 -15 -6
-29 7 -18 18 9 9 21 8 27 -3z m509 -102 c15 -24 0 -71 -21 -67 -20 4 -38 49
-29 73 8 20 36 17 50 -6z m305 -112 c2 -10 -10 -30 -28 -47 -34 -32 -51 -40
-30 -15 7 8 10 24 7 36 -3 11 -3 27 0 35 8 20 47 13 51 -9z m-144 -74 c-12
-36 -39 -42 -47 -11 -5 17 0 28 16 40 29 22 44 8 31 -29z m-194 -49 c69 -10
80 -14 80 -33 0 -15 -10 -21 -51 -26 -33 -5 -55 -3 -62 4 -6 6 -21 11 -33 11
-28 0 -37 14 -29 41 6 17 12 20 33 14 15 -3 43 -9 62 -11z m137 -20 c8 -21
-13 -42 -28 -27 -13 13 -5 43 11 43 6 0 13 -7 17 -16z m218 -114 c-3 -5 -13
-10 -21 -10 -8 0 -14 5 -14 10 0 6 9 10 21 10 11 0 17 -4 14 -10z"/>
<path d="M1902 3430 c0 -14 2 -19 5 -12 2 6 2 18 0 25 -3 6 -5 1 -5 -13z"/>
<path d="M3805 3121 c-195 -42 -372 -101 -361 -119 2 -4 -7 -8 -21 -7 -14 0
-28 -6 -30 -12 -6 -17 22 -16 57 2 47 24 334 70 458 74 l52 1 0 45 c0 30 -4
45 -12 44 -7 0 -71 -13 -143 -28z"/>
<path d="M2405 3080 c-3 -5 -1 -10 4 -10 6 0 11 5 11 10 0 6 -2 10 -4 10 -3 0
-8 -4 -11 -10z"/>
<path d="M2677 3046 c-6 -16 2 -28 14 -20 12 7 11 34 0 34 -5 0 -11 -6 -14
-14z"/>
<path d="M3900 3044 c-14 -2 -63 -9 -110 -15 -80 -10 -274 -44 -313 -55 -25
-8 -11 -23 16 -17 18 5 20 3 10 -8 -34 -35 4 -38 120 -8 45 12 141 31 212 43
115 19 130 24 130 41 0 21 -18 26 -65 19z"/>
<path d="M1956 3031 c-3 -5 4 -11 16 -14 25 -7 33 -3 23 12 -8 13 -32 14 -39
2z"/>
<path d="M1996 2991 c-3 -5 1 -11 9 -15 8 -3 15 -1 15 4 0 13 -18 22 -24 11z"/>
<path d="M3260 2983 c-46 -7 -57 -14 -35 -23 11 -4 26 -3 33 2 6 6 12 6 12 2
0 -10 98 -10 107 0 6 6 -20 10 -44 7 -7 -1 -21 2 -30 7 -10 4 -29 6 -43 5z"/>
<path d="M3860 2973 c-55 -6 -280 -62 -335 -83 -27 -11 -72 -24 -99 -30 -66
-14 -101 -34 -143 -80 -36 -41 -106 -150 -96 -150 3 0 -1 -8 -10 -18 -10 -10
-14 -22 -10 -26 4 -4 1 -11 -7 -17 -12 -7 -12 -11 -3 -17 9 -6 7 -12 -7 -22
-23 -17 -27 -32 -5 -24 18 7 21 -22 3 -29 -10 -4 -9 -8 2 -17 14 -10 37 -9 88
6 13 4 22 2 22 -5 0 -6 -9 -11 -20 -11 -11 0 -24 -8 -27 -17 -8 -22 -28 -43
-41 -43 -5 0 -8 -13 -6 -30 3 -25 0 -30 -19 -31 -21 0 -21 -1 -2 -8 18 -7 17
-9 -12 -24 -34 -18 -63 -22 -63 -9 0 4 -11 12 -24 18 -24 11 -31 4 -40 -38 0
-3 -4 -10 -8 -14 -4 -4 0 -13 10 -21 16 -12 16 -14 0 -26 -21 -17 -12 -30 11
-18 10 6 21 4 29 -5 11 -12 8 -14 -15 -15 -43 -1 -68 -14 -68 -35 0 -14 -6
-18 -22 -17 -14 2 -23 -3 -23 -11 0 -10 -7 -12 -22 -8 -17 4 -20 2 -15 -11 4
-11 1 -17 -7 -17 -8 0 -16 9 -19 19 -2 11 -15 21 -28 24 -24 4 -24 4 -1 6 17
1 22 7 22 27 0 14 14 42 30 63 34 42 69 127 63 154 -4 13 -15 17 -53 17 -27 0
-51 4 -54 8 -3 5 3 29 12 54 13 37 14 51 5 70 -6 13 -19 39 -27 58 -9 20 -36
58 -61 84 -24 27 -42 53 -39 57 3 5 -1 9 -8 9 -16 1 -49 29 -64 55 -11 19 -29
21 -64 9 -11 -4 -8 -9 11 -19 21 -11 28 -25 34 -62 4 -26 11 -56 16 -65 7 -12
3 -21 -13 -32 l-22 -15 24 -21 c13 -11 29 -20 35 -20 7 0 15 -13 17 -30 3 -16
2 -30 -2 -30 -4 0 -13 -11 -20 -25 -9 -17 -22 -25 -41 -25 -16 0 -32 -7 -37
-16 -7 -13 -17 -15 -47 -10 l-38 7 7 45 c6 43 5 45 -17 38 -12 -4 -30 -8 -39
-9 -10 -1 -21 -4 -25 -8 -4 -4 -12 2 -18 14 -11 20 -13 20 -29 4 -16 -16 -16
-18 0 -36 13 -14 18 -37 17 -82 0 -49 4 -65 19 -75 10 -7 23 -10 28 -7 15 9
12 -2 -6 -30 -14 -22 -15 -25 -1 -25 8 0 18 6 21 13 3 8 9 7 20 -7 9 -11 20
-15 28 -10 7 4 10 4 6 -1 -4 -4 -3 -14 3 -21 18 -22 -18 -71 -58 -77 -19 -4
-50 -18 -68 -32 -19 -14 -38 -25 -42 -25 -5 0 -18 -7 -29 -15 -16 -13 -16 -14
-1 -9 12 4 17 1 17 -11 0 -14 3 -15 15 -5 12 10 15 10 15 -3 0 -8 11 -18 25
-21 31 -8 32 -24 1 -35 -28 -11 -43 -41 -20 -41 8 0 26 11 39 25 14 13 25 20
25 15 0 -6 6 -10 13 -10 23 0 45 -35 35 -54 -15 -27 0 -33 18 -7 9 12 21 20
28 18 6 -3 20 1 31 9 24 18 35 18 35 -1 0 -8 -7 -15 -15 -15 -9 0 -18 -13 -22
-32 l-7 -33 -7 30 c-6 28 -7 28 -8 5 -1 -36 -18 -50 -47 -40 -19 7 -27 5 -42
-15 -14 -18 -22 -21 -30 -13 -9 9 -17 7 -34 -8 -13 -10 -33 -25 -45 -32 -19
-10 -23 -10 -23 3 0 8 -8 15 -17 16 -34 2 -77 -3 -100 -12 -19 -7 -23 -5 -23
11 0 21 -24 26 -50 10 -9 -6 -17 -5 -21 2 -8 13 -39 3 -39 -12 0 -6 6 -8 13
-4 10 6 10 4 0 -7 -14 -14 -18 -109 -5 -109 4 0 18 7 31 16 14 10 26 13 30 7
3 -6 23 -8 43 -5 35 4 38 6 35 36 -2 28 1 31 30 34 26 3 32 -1 35 -20 2 -14 9
-22 18 -19 31 8 251 7 257 -2 3 -4 14 -1 24 9 10 9 19 14 19 11 0 -3 13 -2 28
4 17 6 38 6 52 1 18 -7 28 -3 48 15 27 25 66 30 78 11 5 -7 10 -4 15 10 6 15
17 22 33 22 14 0 28 5 31 10 4 6 16 8 26 5 11 -4 27 -1 35 6 8 6 17 9 21 5 3
-3 11 4 17 16 6 11 20 26 31 32 11 6 25 18 32 26 11 13 14 12 19 -7 6 -22 24
-32 24 -14 0 5 8 8 18 7 10 0 16 5 14 13 -2 8 1 17 5 20 5 3 13 20 18 36 7 19
18 31 32 33 12 2 20 9 18 15 -5 13 47 77 63 77 5 0 13 11 16 25 4 15 14 25 25
25 10 0 23 12 29 26 7 14 17 22 22 19 6 -3 10 -1 10 5 0 6 19 28 42 50 38 35
43 37 55 22 11 -15 12 -15 13 -2 0 9 -13 31 -30 50 -47 56 -34 56 19 1 28 -29
53 -62 57 -74 3 -12 16 -35 28 -52 34 -46 55 -138 60 -266 5 -147 19 -192 73
-248 23 -24 40 -47 38 -51 -3 -4 2 -27 10 -50 8 -23 15 -57 15 -75 0 -19 5
-35 10 -37 11 -3 16 -46 20 -158 3 -95 2 -103 -15 -96 -8 3 -15 2 -15 -3 0 -5
-9 -11 -20 -14 -11 -3 -20 -2 -20 3 0 4 9 10 20 13 22 6 26 28 9 59 -9 16 -13
18 -19 7 -6 -9 -14 0 -25 29 -24 59 -39 54 -31 -10 9 -73 11 -82 20 -96 5 -9
-4 -12 -36 -12 -33 0 -40 3 -28 11 11 8 12 12 3 16 -7 2 -13 16 -13 29 0 13
-5 24 -11 24 -8 0 -10 -14 -6 -45 5 -37 4 -45 -9 -45 -11 0 -14 -6 -9 -22 4
-13 11 -27 15 -32 13 -14 31 4 25 25 -4 13 -2 19 9 19 19 0 19 1 5 -39 -10
-28 -9 -35 10 -52 l22 -20 -21 -33 c-25 -42 -25 -56 0 -56 30 0 35 -25 16 -74
-9 -23 -16 -63 -15 -87 1 -24 -2 -64 -6 -88 -6 -32 -5 -42 3 -37 7 4 12 18 12
32 0 19 4 24 18 22 9 -2 15 -11 13 -19 -2 -8 -4 -45 -3 -84 0 -38 -4 -85 -10
-103 -5 -18 -8 -36 -5 -39 11 -11 55 74 62 120 3 26 14 55 25 65 14 13 19 40
25 117 7 104 12 125 25 105 14 -23 -4 -162 -28 -220 -8 -19 -16 -63 -17 -97
-4 -79 -14 -110 -78 -241 -22 -46 -15 -68 18 -56 17 7 17 8 -1 21 -10 7 -13
13 -5 13 7 0 20 7 29 16 18 19 29 4 17 -24 -9 -22 -15 -67 -15 -115 0 -24 -3
-36 -10 -32 -5 3 -10 -2 -10 -12 0 -10 -12 -40 -25 -68 -14 -27 -25 -57 -25
-65 0 -8 9 4 20 28 20 45 35 57 25 20 -4 -17 -1 -15 12 7 9 17 22 57 29 90 12
59 12 59 13 18 1 -24 5 -43 9 -43 14 0 34 89 28 125 -10 52 18 36 31 -18 6
-27 9 -31 6 -10 -5 41 5 80 22 87 11 4 13 -4 9 -33 -3 -28 0 -40 10 -44 10 -4
13 -1 9 9 -3 7 -1 14 4 14 6 0 8 -32 6 -77 -6 -99 -9 -109 -19 -53 -4 25 -9
39 -12 32 -2 -6 -8 -10 -13 -6 -5 3 -9 2 -8 -3 5 -30 -4 -64 -18 -72 -16 -8
-18 -4 -16 35 0 26 -3 42 -9 38 -5 -3 -8 -18 -6 -34 1 -15 -2 -34 -8 -41 -6
-8 -14 -30 -17 -49 -4 -32 -2 -36 16 -37 12 0 16 1 10 4 -18 7 -16 33 2 33 8
0 15 -9 15 -20 0 -19 7 -20 105 -20 l105 0 0 186 c0 170 -7 224 -28 224 -4 0
-7 -53 -6 -117 0 -65 -1 -92 -3 -61 -4 61 -23 81 -23 26 0 -25 -3 -29 -10 -18
-7 11 -10 3 -11 -30 -1 -42 -2 -43 -9 -15 -5 17 -14 63 -21 102 -11 66 -11 75
5 92 10 11 25 35 34 53 18 34 49 49 62 28 4 -6 8 58 9 143 1 127 -1 156 -14
167 -8 7 -15 21 -15 32 0 17 3 18 15 8 13 -11 15 -7 15 29 0 38 -2 42 -20 36
-24 -7 -25 1 -6 46 7 19 11 39 9 46 -2 6 1 14 6 18 8 4 11 271 11 855 l0 848
-67 12 c-38 6 -126 12 -198 12 -106 2 -146 -2 -215 -21 -135 -35 -203 -50
-230 -50 -24 0 -24 0 -6 14 11 8 28 15 38 15 10 0 18 5 18 10 0 6 -7 10 -15
10 -8 0 -15 5 -15 10 0 13 6 13 29 -2 13 -8 38 -8 92 -1 l74 10 -87 2 c-49 0
-88 5 -88 10 0 11 36 21 82 21 29 0 36 4 34 18 -2 9 2 20 8 24 6 4 -2 8 -19 9
-25 0 -27 2 -10 8 61 25 112 30 333 37 133 4 242 8 242 9 0 1 -7 19 -15 38 -8
20 -15 48 -15 62 0 27 -12 29 -110 18z m-350 -303 c0 -5 -5 -10 -11 -10 -5 0
-7 5 -4 10 3 6 8 10 11 10 2 0 4 -4 4 -10z m73 -27 c-7 -2 -21 -2 -30 0 -10 3
-4 5 12 5 17 0 24 -2 18 -5z m306 -13 c34 -10 -168 -1 -234 10 -32 6 -5 7 79
3 71 -3 141 -9 155 -13z m-529 -14 c0 -12 -71 -38 -115 -42 l-50 -5 34 15 c18
9 45 16 60 16 14 0 33 5 41 10 16 10 30 13 30 6z m-150 -76 c0 -5 -2 -10 -4
-10 -3 0 -8 5 -11 10 -3 6 -1 10 4 10 6 0 11 -4 11 -10z m438 -82 c45 -17 81
-33 79 -35 -3 -2 -42 10 -88 26 -46 16 -117 39 -156 51 -40 12 -73 26 -73 30
0 9 115 -26 238 -72z m-398 58 c0 -3 -4 -8 -10 -11 -5 -3 -10 -1 -10 4 0 6 5
11 10 11 6 0 10 -2 10 -4z m-785 -180 c-11 -8 -23 -12 -28 -9 -13 8 3 23 26
23 20 0 20 0 2 -14z m93 -8 c14 -14 16 -48 4 -48 -14 0 -53 46 -45 53 10 11
28 8 41 -5z m-45 -38 c3 -11 1 -20 -4 -20 -4 0 -13 9 -19 20 -8 16 -8 20 3 20
8 0 17 -9 20 -20z m597 -35 c0 -13 -42 -45 -60 -45 -31 0 -24 18 13 34 35 16
47 19 47 11z m-520 -31 c0 -9 -5 -14 -12 -12 -18 6 -21 28 -4 28 9 0 16 -7 16
-16z m430 -89 c7 -8 8 -15 2 -15 -5 0 -15 7 -22 15 -7 8 -8 15 -2 15 5 0 15
-7 22 -15z m-545 -54 c-3 -6 -14 -10 -23 -10 -15 1 -15 2 1 6 9 2 17 9 17 15
0 6 3 9 6 5 3 -3 3 -10 -1 -16z m293 -20 c-15 -5 -19 4 -11 24 6 18 7 18 13
-1 4 -10 3 -21 -2 -23z m-371 -8 c-3 -10 -5 -4 -5 12 0 17 2 24 5 18 2 -7 2
-21 0 -30z m343 -45 c0 -4 -7 -5 -15 -2 -8 4 -15 16 -15 28 1 21 1 21 15 2 8
-11 15 -23 15 -28z m-60 12 c-13 -9 -12 -12 4 -25 11 -8 14 -15 8 -15 -7 0
-12 -9 -12 -20 0 -17 -5 -19 -25 -14 -19 5 -25 2 -25 -9 0 -9 -4 -19 -10 -22
-6 -4 -10 7 -10 24 0 20 5 31 14 31 9 0 12 7 10 18 -3 11 3 21 18 28 29 15 48
17 28 4z m-524 -265 c-9 -9 -16 -13 -16 -8 0 12 22 34 28 28 2 -2 -3 -11 -12
-20z m1660 -463 c-13 -12 -17 8 -10 40 l9 33 3 -33 c2 -19 1 -36 -2 -40z m23
-54 c0 -28 -2 -30 -9 -13 -12 28 -12 45 0 45 6 0 10 -15 9 -32z m-147 -20 c-7
-7 -12 -8 -12 -2 0 14 12 26 19 19 2 -3 -1 -11 -7 -17z m100 -88 c3 -48 -13
-65 -24 -25 -3 14 -1 26 5 28 9 3 9 10 -1 26 -7 12 -10 27 -6 33 10 17 22 -11
26 -62z m188 60 c0 -5 -5 -10 -11 -10 -5 0 -7 5 -4 10 3 6 8 10 11 10 2 0 4
-4 4 -10z m-250 -30 c0 -11 -4 -20 -10 -20 -5 0 -10 9 -10 20 0 11 5 20 10 20
6 0 10 -9 10 -20z m-45 0 c-3 -5 -13 -10 -21 -10 -8 0 -14 5 -14 10 0 6 9 10
21 10 11 0 17 -4 14 -10z m12 -37 c-4 -3 -1 -11 6 -17 7 -6 19 -24 25 -39 10
-24 10 -27 -4 -25 -24 4 -28 -17 -8 -37 16 -16 16 -19 2 -43 -19 -30 -45 -44
-35 -18 17 41 20 50 12 43 -12 -11 -37 65 -25 77 7 7 10 6 10 -2 0 -7 5 -12
10 -12 19 0 10 25 -12 35 -30 14 -33 33 -6 38 13 2 25 5 27 6 2 0 1 -2 -2 -6z
m-2 -283 c3 -5 3 -15 -1 -21 -6 -11 -23 6 -24 24 0 10 18 9 25 -3z m245 -160
c0 -5 -4 -10 -9 -10 -6 0 -13 5 -16 10 -3 6 1 10 9 10 9 0 16 -4 16 -10z
m-140 -60 c0 -16 -4 -30 -10 -30 -5 0 -10 14 -10 30 0 17 5 30 10 30 6 0 10
-13 10 -30z m124 -105 c3 -8 1 -15 -4 -15 -6 0 -10 7 -10 15 0 8 2 15 4 15 2
0 6 -7 10 -15z m-134 -55 c0 -10 -4 -22 -10 -25 -6 -4 -10 7 -10 25 0 18 4 29
10 25 6 -3 10 -15 10 -25z m-30 -72 c0 -24 -4 -38 -9 -32 -12 13 -22 60 -14
68 15 15 23 3 23 -36z m87 -325 c0 -40 -1 -43 -6 -18 -6 26 -4 65 4 65 1 0 2
-21 2 -47z"/>
<path d="M2770 2949 c0 -6 5 -19 11 -30 8 -16 13 -18 24 -9 11 9 12 16 2 31
-13 20 -37 26 -37 8z"/>
<path d="M3160 2944 c0 -10 6 -14 15 -11 20 8 31 -13 14 -25 -11 -8 -10 -8 4
-4 10 3 23 6 28 6 16 0 10 38 -7 44 -29 11 -54 6 -54 -10z"/>
<path d="M1960 2929 c-8 -10 -22 -19 -32 -19 -10 0 -18 -7 -18 -15 0 -9 9 -15
24 -15 15 0 26 -7 29 -20 3 -11 13 -20 22 -20 14 0 15 3 5 15 -7 8 -9 22 -6
31 5 13 9 14 21 4 12 -10 15 -9 15 4 0 9 -7 16 -15 16 -8 0 -15 6 -15 14 0 24
-15 26 -30 5z"/>
<path d="M2080 2929 c0 -5 5 -7 10 -4 6 3 10 8 10 11 0 2 -4 4 -10 4 -5 0 -10
-5 -10 -11z"/>
<path d="M3120 2865 c0 -23 -41 -95 -51 -89 -5 3 -9 -1 -9 -9 0 -10 7 -13 19
-10 21 5 35 29 25 45 -3 5 4 12 16 15 16 4 21 12 17 29 -2 13 1 25 7 28 6 2 3
5 -6 5 -10 1 -18 -6 -18 -14z"/>
<path d="M3800 2833 c-121 -6 -280 -24 -302 -33 -17 -6 -19 -9 -5 -9 9 -1 17
-4 17 -7 0 -4 -8 -13 -17 -21 -16 -13 -10 -14 47 -9 36 2 124 11 195 20 72 8
160 18 198 21 57 6 67 9 67 26 0 20 -29 22 -200 12z"/>
<path d="M2140 2820 c0 -5 5 -10 10 -10 6 0 10 5 10 10 0 6 -4 10 -10 10 -5 0
-10 -4 -10 -10z"/>
<path d="M1437 2793 c-10 -10 -8 -43 2 -43 6 0 23 11 38 25 l28 24 -31 1 c-17
0 -34 -3 -37 -7z"/>
<path d="M1978 2782 c-21 -4 -23 -13 -6 -30 15 -15 31 -16 22 -1 -4 7 -1 10 6
7 11 -3 24 -20 37 -46 2 -6 43 23 43 31 0 5 -7 15 -15 23 -8 9 -15 13 -15 10
0 -2 -12 -1 -27 3 -16 4 -36 5 -45 3z"/>
<path d="M2095 2770 c-3 -5 0 -12 6 -16 9 -5 8 -10 -3 -18 -9 -6 -19 -30 -23
-54 -5 -34 -4 -42 8 -42 9 0 17 3 20 8 2 4 2 2 1 -5 -2 -7 1 -15 7 -19 6 -3
14 -15 18 -26 7 -19 8 -19 24 -3 21 21 22 68 1 127 -14 43 -46 69 -59 48z"/>
<path d="M3830 2759 c-43 -7 -28 -13 68 -28 100 -15 102 -15 102 15 0 25 -1
25 -67 22 -38 -1 -84 -5 -103 -9z"/>
<path d="M1528 2745 c-14 -8 -41 -13 -59 -11 -19 2 -43 -2 -54 -10 -10 -8 -27
-14 -37 -14 -10 0 -18 -5 -18 -11 0 -7 7 -8 18 -4 22 9 57 15 112 19 25 3 47
5 50 7 3 1 14 2 25 3 23 1 27 30 5 33 -8 1 -27 -4 -42 -12z"/>
<path d="M1450 2649 c0 -5 14 -9 30 -9 17 0 30 4 30 8 0 5 -13 9 -30 10 -16 0
-30 -4 -30 -9z"/>
<path d="M1405 2630 c4 -6 11 -8 16 -5 14 9 11 15 -7 15 -8 0 -12 -5 -9 -10z"/>
<path d="M1410 2560 c0 -13 11 -13 30 0 12 8 11 10 -7 10 -13 0 -23 -4 -23
-10z"/>
<path d="M2080 2440 c0 -11 -4 -20 -10 -20 -23 0 -8 -28 18 -33 15 -3 28 -4
29 -3 1 1 -2 19 -8 39 -11 40 -29 50 -29 17z"/>
<path d="M3100 2400 c-9 -18 -8 -20 15 -20 27 0 28 1 19 24 -8 22 -21 20 -34
-4z"/>
<path d="M1920 2395 c28 -16 70 -20 70 -6 0 9 -48 21 -79 21 -11 -1 -8 -5 9
-15z"/>
<path d="M3050 2389 c0 -5 5 -7 10 -4 6 3 10 8 10 11 0 2 -4 4 -10 4 -5 0 -10
-5 -10 -11z"/>
<path d="M3012 2360 c-11 -18 -10 -20 12 -20 13 0 27 -6 30 -12 3 -9 8 -8 16
5 6 9 19 17 28 18 12 0 9 3 -7 10 -14 5 -31 7 -40 4 -8 -3 -17 -1 -21 4 -3 6
-11 2 -18 -9z"/>
<path d="M3088 2313 c6 -2 18 -2 25 0 6 3 1 5 -13 5 -14 0 -19 -2 -12 -5z"/>
<path d="M2029 2245 c0 0 -2 -13 -4 -28 -4 -27 -3 -28 41 -26 24 2 44 5 43 8
-4 37 -19 46 -80 46z"/>
<path d="M1895 2230 c-9 -15 4 -30 23 -27 29 4 32 37 3 37 -11 0 -23 -4 -26
-10z"/>
<path d="M2393 2221 c-13 -11 -23 -24 -23 -30 0 -18 28 -13 50 9 38 38 15 56
-27 21z"/>
<path d="M2335 2170 c-3 -5 -13 -7 -23 -4 -14 5 -14 4 -3 -4 15 -11 41 -5 41
9 0 12 -7 11 -15 -1z"/>
<path d="M2182 2118 c6 -18 28 -21 28 -4 0 9 -7 16 -16 16 -9 0 -14 -5 -12
-12z"/>
<path d="M2270 2030 c0 -5 5 -10 10 -10 6 0 10 5 10 10 0 6 -4 10 -10 10 -5 0
-10 -4 -10 -10z"/>
<path d="M1720 1995 c-36 -19 -61 -34 -57 -35 4 0 26 10 49 21 23 12 60 27 82
34 32 10 35 13 16 14 -14 0 -54 -15 -90 -34z"/>
<path d="M1975 2016 c-32 -15 -27 -20 31 -30 26 -4 33 -1 37 14 9 33 -16 39
-68 16z"/>
<path d="M2072 1966 l1 -45 23 17 c13 9 24 20 24 25 0 7 -37 47 -44 47 -2 0
-4 -20 -4 -44z"/>
<path d="M2155 1960 c-18 -8 -17 -9 8 -9 15 -1 27 4 27 9 0 12 -8 12 -35 0z"/>
<path d="M2243 1949 c-41 -20 -89 -74 -74 -83 4 -3 17 4 29 14 24 23 42 26 42
8 0 -6 6 -3 14 7 8 11 12 24 9 28 -3 5 4 6 16 2 17 -5 21 -2 21 14 0 30 -13
32 -57 10z"/>
<path d="M2406 1936 c-31 -41 -37 -79 -8 -54 9 9 22 14 28 11 19 -6 35 23 28
51 -8 34 -16 33 -48 -8z"/>
<path d="M2070 1860 c0 -5 5 -10 10 -10 6 0 10 5 10 10 0 6 -4 10 -10 10 -5 0
-10 -4 -10 -10z"/>
<path d="M1885 1852 c-6 -5 -37 -17 -70 -27 -48 -16 -55 -20 -34 -23 15 -2 35
-12 45 -23 24 -26 44 -24 84 10 l35 29 -22 21 c-25 24 -26 24 -38 13z"/>
<path d="M1538 1840 c-71 -9 -88 -15 -88 -31 0 -6 13 -8 33 -4 17 4 51 6 75 6
23 -1 51 4 62 12 20 14 17 28 -4 26 -6 -1 -41 -5 -78 -9z"/>
<path d="M1320 1825 c0 -8 5 -15 10 -15 6 0 10 5 10 11 0 6 9 8 20 4 11 -3 20
-3 20 2 0 5 -13 10 -30 11 -21 2 -30 -2 -30 -13z"/>
<path d="M2015 1830 c-3 -5 -1 -10 4 -10 6 0 11 5 11 10 0 6 -2 10 -4 10 -3 0
-8 -4 -11 -10z"/>
<path d="M1705 1820 c-8 -13 5 -13 25 0 13 8 13 10 -2 10 -9 0 -20 -4 -23 -10z"/>
<path d="M1969 1801 c-13 -9 -26 -19 -27 -24 -2 -4 -17 -14 -33 -23 -27 -14
-29 -18 -23 -57 8 -50 19 -66 36 -49 17 17 26 15 37 -7 9 -16 7 -18 -20 -15
-25 3 -30 1 -25 -12 3 -9 6 -19 6 -24 0 -4 8 -6 19 -3 19 5 22 -4 37 -97 10
-69 22 -55 25 30 1 36 5 72 9 80 4 8 15 31 25 51 11 24 14 45 10 60 -5 13 -8
38 -7 54 2 41 -33 59 -69 36z m13 -93 c-2 -10 -11 -18 -19 -18 -9 0 -11 -5 -7
-12 6 -10 4 -10 -8 0 -16 13 -14 52 3 52 5 0 9 8 9 17 0 15 2 15 14 -2 7 -10
11 -27 8 -37z"/>
<path d="M1725 1790 c-3 -5 -1 -10 4 -10 6 0 11 5 11 10 0 6 -2 10 -4 10 -3 0
-8 -4 -11 -10z"/>
<path d="M3581 1795 c1 -19 18 -51 18 -35 0 8 -4 22 -9 30 -5 8 -9 11 -9 5z"/>
<path d="M2845 1780 c-3 -5 -1 -10 4 -10 6 0 11 5 11 10 0 6 -2 10 -4 10 -3 0
-8 -4 -11 -10z"/>
<path d="M3167 1743 c-4 -3 -7 -11 -7 -17 0 -6 5 -5 12 2 6 6 9 14 7 17 -3 3
-9 2 -12 -2z"/>
<path d="M3212 1729 c2 -7 10 -15 17 -17 8 -3 12 1 9 9 -2 7 -10 15 -17 17 -8
3 -12 -1 -9 -9z"/>
<path d="M1882 1631 c-17 -10 -28 -81 -13 -81 6 0 11 9 11 21 0 11 5 29 11 41
12 23 9 30 -9 19z"/>
<path d="M1831 1563 c-1 -18 4 -33 9 -33 12 0 12 17 0 45 -7 17 -9 15 -9 -12z"/>
<path d="M1728 1567 c-23 -9 -28 -17 -28 -43 0 -18 -4 -36 -10 -39 -5 -3 -10
-14 -10 -23 0 -12 5 -9 17 10 9 15 26 29 37 32 16 4 21 13 21 41 0 19 0 35 0
34 0 -1 -12 -6 -27 -12z"/>
<path d="M1355 1540 c3 -5 8 -10 11 -10 2 0 4 5 4 10 0 6 -5 10 -11 10 -5 0
-7 -4 -4 -10z"/>
<path d="M1906 1535 c-15 -11 -16 -15 -5 -16 8 0 4 -5 -8 -11 -24 -12 -29 -23
-14 -33 5 -3 16 2 24 10 9 8 20 15 26 15 6 0 15 8 20 19 18 32 -9 42 -43 16z"/>
<path d="M1775 1520 c-3 -5 -1 -10 4 -10 6 0 11 5 11 10 0 6 -2 10 -4 10 -3 0
-8 -4 -11 -10z"/>
<path d="M1810 1501 c0 -5 5 -13 10 -16 6 -3 10 -2 10 4 0 5 -4 13 -10 16 -5
3 -10 2 -10 -4z"/>
<path d="M1420 1475 c-7 -8 -9 -15 -6 -15 4 0 14 7 22 15 9 8 11 15 6 15 -5 0
-15 -7 -22 -15z"/>
<path d="M1960 1441 c0 -11 4 -22 9 -25 4 -3 6 6 3 19 -5 30 -12 33 -12 6z"/>
<path d="M1310 1431 c0 -5 12 -11 27 -14 26 -5 26 -4 8 9 -22 16 -35 18 -35 5z"/>
<path d="M1426 1433 c-12 -12 -6 -22 17 -25 18 -2 22 -10 24 -46 l2 -42 -38 6
c-22 3 -41 2 -45 -4 -3 -5 16 -12 46 -16 47 -7 54 -5 70 16 22 29 23 54 1 76
-22 22 -69 43 -77 35z"/>
<path d="M3506 1412 c-3 -5 0 -23 8 -39 8 -15 18 -37 21 -48 5 -16 8 -17 16
-5 8 13 10 13 19 0 6 -11 12 -12 20 -4 12 12 3 44 -11 44 -5 0 -9 7 -9 15 0 8
-7 15 -16 15 -9 0 -22 7 -29 17 -8 10 -14 12 -19 5z"/>
<path d="M1890 1400 c0 -5 -7 -10 -15 -10 -8 0 -15 -4 -15 -9 0 -5 9 -7 20 -4
17 5 30 33 15 33 -3 0 -5 -4 -5 -10z"/>
<path d="M1372 1390 c2 -7 15 -20 29 -29 l24 -16 -16 24 c-17 27 -44 42 -37
21z"/>
<path d="M3746 1355 c4 -8 8 -15 10 -15 2 0 4 7 4 15 0 8 -4 15 -10 15 -5 0
-7 -7 -4 -15z"/>
<path d="M3610 1326 c0 -8 5 -18 10 -21 6 -3 10 1 10 9 0 8 -4 18 -10 21 -5 3
-10 -1 -10 -9z"/>
<path d="M1274 1305 c-11 -8 -14 -14 -6 -15 6 0 21 -9 33 -21 19 -19 19 -22 5
-44 -19 -30 -10 -38 20 -18 29 19 47 8 20 -12 -21 -16 -13 -35 14 -35 28 0 34
-19 12 -38 -19 -17 -19 -42 0 -42 6 0 17 8 25 18 13 15 14 15 10 1 -3 -9 1
-26 9 -38 17 -24 3 -29 -16 -6 -7 8 -16 12 -22 9 -5 -3 -15 -2 -21 3 -7 4 -1
-2 13 -14 14 -13 28 -23 31 -23 4 0 9 -10 13 -22 5 -18 8 -20 15 -9 6 10 11 5
16 -18 4 -21 15 -35 31 -41 17 -7 24 -17 24 -35 0 -14 5 -25 10 -25 6 0 10 13
10 29 0 17 -4 33 -10 36 -5 3 -10 24 -10 47 0 29 -4 39 -13 35 -8 -3 -20 -1
-28 4 -10 6 -10 9 -1 9 7 0 12 14 12 35 0 19 -4 35 -9 35 -5 0 -13 9 -16 20
-3 11 -12 26 -18 32 -7 7 -25 34 -39 59 -15 25 -42 58 -61 72 -31 23 -37 25
-53 12z"/>
<path d="M1940 1300 c0 -5 5 -10 10 -10 6 0 10 5 10 10 0 6 -4 10 -10 10 -5 0
-10 -4 -10 -10z"/>
<path d="M1430 1265 c0 -8 4 -15 9 -15 5 0 11 7 15 15 3 9 0 15 -9 15 -8 0
-15 -7 -15 -15z"/>
<path d="M1790 1271 c0 -6 5 -13 10 -16 6 -3 10 1 10 9 0 9 -4 16 -10 16 -5 0
-10 -4 -10 -9z"/>
<path d="M1510 1259 c0 -5 5 -7 10 -4 6 3 10 8 10 11 0 2 -4 4 -10 4 -5 0 -10
-5 -10 -11z"/>
<path d="M1925 1260 c-3 -5 -1 -10 4 -10 6 0 11 5 11 10 0 6 -2 10 -4 10 -3 0
-8 -4 -11 -10z"/>
<path d="M1216 1244 c-9 -24 -7 -28 9 -14 17 14 20 30 6 30 -5 0 -12 -7 -15
-16z"/>
<path d="M1470 1243 c0 -15 19 -38 32 -39 34 -3 38 -5 38 -24 0 -14 -5 -18
-16 -13 -14 5 -15 3 -4 -17 12 -23 13 -23 27 -4 14 18 14 18 33 -6 22 -28 21
-46 -4 -42 -11 2 -8 -5 10 -23 14 -14 27 -25 29 -23 1 2 8 14 15 28 9 17 10
25 1 28 -6 2 -11 12 -11 22 0 10 -18 31 -40 47 -31 21 -40 33 -37 51 3 17 1
20 -9 11 -9 -7 -18 -7 -33 0 -23 13 -31 14 -31 4z"/>
<path d="M1065 1211 c-3 -6 -1 -11 4 -11 15 0 14 -27 -1 -33 -8 -4 -9 -6 -2
-6 22 -2 33 23 19 42 -8 12 -15 14 -20 8z"/>
<path d="M1210 1194 c0 -8 5 -12 10 -9 6 3 10 10 10 16 0 5 -4 9 -10 9 -5 0
-10 -7 -10 -16z"/>
<path d="M1290 1129 c0 -5 5 -7 10 -4 6 3 10 8 10 11 0 2 -4 4 -10 4 -5 0 -10
-5 -10 -11z"/>
<path d="M1476 1132 c-6 -11 15 -62 27 -62 9 0 -2 51 -13 63 -4 5 -10 4 -14
-1z"/>
<path d="M1165 1090 c3 -5 8 -10 11 -10 2 0 4 5 4 10 0 6 -5 10 -11 10 -5 0
-7 -4 -4 -10z"/>
<path d="M1255 1068 c8 -36 26 -68 37 -68 13 0 9 27 -9 65 -21 44 -37 46 -28
3z"/>
<path d="M170 1051 c0 -5 -3 -18 -6 -28 -5 -16 -4 -16 10 1 18 23 20 36 6 36
-5 0 -10 -4 -10 -9z"/>
<path d="M220 1040 c0 -5 5 -10 10 -10 6 0 10 5 10 10 0 6 -4 10 -10 10 -5 0
-10 -4 -10 -10z"/>
<path d="M290 1020 c0 -7 -6 -10 -14 -7 -18 7 -42 -12 -51 -41 -6 -22 -5 -23
47 -19 l53 3 0 34 c0 25 -5 36 -17 38 -10 2 -18 -2 -18 -8z"/>
<path d="M346 984 c-4 -15 -3 -31 2 -36 15 -15 47 7 49 31 1 12 -3 19 -8 15
-5 -3 -16 -1 -23 5 -11 9 -15 6 -20 -15z"/>
<path d="M1380 996 c0 -8 4 -17 9 -20 5 -4 7 3 4 14 -6 23 -13 26 -13 6z"/>
<path d="M410 990 c0 -5 5 -10 10 -10 6 0 10 5 10 10 0 6 -4 10 -10 10 -5 0
-10 -4 -10 -10z"/>
<path d="M446 937 c-11 -8 -16 -21 -14 -33 5 -19 5 -19 13 1 5 11 16 25 24 32
22 17 -1 16 -23 0z"/>
<path d="M1355 941 c-3 -5 -1 -12 5 -16 5 -3 10 1 10 9 0 18 -6 21 -15 7z"/>
<path d="M1221 824 c0 -11 3 -14 6 -6 3 7 2 16 -1 19 -3 4 -6 -2 -5 -13z"/>
<path d="M2830 595 c-8 -9 -8 -15 -2 -15 12 0 26 19 19 26 -2 2 -10 -2 -17
-11z"/>
<path d="M480 510 c0 -5 5 -10 10 -10 6 0 10 5 10 10 0 6 -4 10 -10 10 -5 0
-10 -4 -10 -10z"/>
<path d="M2860 490 c0 -5 6 -10 14 -10 8 0 18 5 21 10 3 6 -3 10 -14 10 -12 0
-21 -4 -21 -10z"/>
<path d="M696 456 c-17 -27 -21 -46 -8 -46 9 0 36 59 29 66 -2 2 -12 -7 -21
-20z"/>
<path d="M3651 464 c0 -11 3 -14 6 -6 3 7 2 16 -1 19 -3 4 -6 -2 -5 -13z"/>
<path d="M550 433 c0 -18 2 -33 4 -33 9 0 13 39 5 51 -6 10 -9 4 -9 -18z"/>
<path d="M575 420 c-3 -6 -3 -20 1 -33 7 -21 7 -21 15 -2 4 11 8 26 8 33 1 14
-15 16 -24 2z"/>
<path d="M3588 418 c-11 -8 -15 -18 -9 -26 6 -10 10 -10 20 2 19 22 10 40 -11
24z"/>
<path d="M3930 370 c0 -5 5 -10 10 -10 6 0 10 5 10 10 0 6 -4 10 -10 10 -5 0
-10 -4 -10 -10z"/>
<path d="M3041 344 c0 -11 3 -14 6 -6 3 7 2 16 -1 19 -3 4 -6 -2 -5 -13z"/>
<path d="M3940 330 c0 -5 5 -10 11 -10 5 0 7 5 4 10 -3 6 -8 10 -11 10 -2 0
-4 -4 -4 -10z"/>
<path d="M3426 183 c-14 -14 -24 -28 -22 -31 4 -4 56 46 56 54 0 8 -9 3 -34
-23z"/>
<path d="M3531 182 c-6 -12 -11 -27 -11 -34 1 -7 8 0 16 15 9 16 13 31 11 34
-3 2 -10 -4 -16 -15z"/>
<path d="M3060 124 c0 -8 5 -12 10 -9 6 3 10 10 10 16 0 5 -4 9 -10 9 -5 0
-10 -7 -10 -16z"/>
<path d="M3001 35 l-34 -35 46 0 c44 0 46 1 38 22 -4 13 -6 29 -4 36 8 22 -11
12 -46 -23z"/>
<path d="M3060 60 c0 -5 5 -10 10 -10 6 0 10 5 10 10 0 6 -4 10 -10 10 -5 0
-10 -4 -10 -10z"/>
</g>
</svg>
